<mxfile>
    <diagram id="ChY3Sn_Okx8wMbS6vSr3" name="ページ1">
        <mxGraphModel dx="743" dy="583" grid="1" gridSize="10" guides="1" tooltips="1" connect="1" arrows="1" fold="1" page="1" pageScale="1" pageWidth="827" pageHeight="1169" background="#ffffff" math="0" shadow="0">
            <root>
                <mxCell id="0"/>
                <mxCell id="1" parent="0"/>
                <mxCell id="95" value="" style="rounded=1;whiteSpace=wrap;html=1;arcSize=1;movable=1;resizable=1;rotatable=1;deletable=1;editable=1;connectable=1;" parent="1" vertex="1">
                    <mxGeometry x="718" y="40" width="330" height="560" as="geometry"/>
                </mxCell>
                <mxCell id="88" value="" style="rounded=1;whiteSpace=wrap;html=1;arcSize=1;movable=1;resizable=1;rotatable=1;deletable=1;editable=1;connectable=1;" parent="1" vertex="1">
                    <mxGeometry x="270" y="40" width="430" height="560" as="geometry"/>
                </mxCell>
                <mxCell id="79" value="CodeBuild" style="outlineConnect=0;dashed=0;verticalLabelPosition=bottom;verticalAlign=top;align=center;html=1;shape=mxgraph.aws3.codebuild;fillColor=#759C3E;gradientColor=none;" parent="1" vertex="1">
                    <mxGeometry x="321.49" y="409" width="58.4" height="71" as="geometry"/>
                </mxCell>
                <mxCell id="81" value="CodePipeline" style="outlineConnect=0;dashed=0;verticalLabelPosition=bottom;verticalAlign=top;align=center;html=1;shape=mxgraph.aws3.codepipeline;fillColor=#759C3E;gradientColor=none;" parent="1" vertex="1">
                    <mxGeometry x="938" y="260" width="58.33" height="70" as="geometry"/>
                </mxCell>
                <mxCell id="82" value="CodeBuild" style="outlineConnect=0;dashed=0;verticalLabelPosition=bottom;verticalAlign=top;align=center;html=1;shape=mxgraph.aws3.codebuild;fillColor=#759C3E;gradientColor=none;" parent="1" vertex="1">
                    <mxGeometry x="938" y="409" width="58.4" height="71" as="geometry"/>
                </mxCell>
                <mxCell id="83" value="" style="endArrow=classic;html=1;entryX=0;entryY=0.5;entryDx=0;entryDy=0;entryPerimeter=0;exitX=1;exitY=0.5;exitDx=0;exitDy=0;exitPerimeter=0;dashed=1;dashPattern=1 1;" parent="1" source="80" target="78" edge="1">
                    <mxGeometry width="50" height="50" relative="1" as="geometry">
                        <mxPoint x="359.06" y="390" as="sourcePoint"/>
                        <mxPoint x="549.06" y="340" as="targetPoint"/>
                    </mxGeometry>
                </mxCell>
                <mxCell id="86" value="&lt;span style=&quot;background-color: rgb(51 , 153 , 255)&quot;&gt;&lt;font color=&quot;#ffffff&quot; face=&quot;Verdana&quot;&gt;&lt;b&gt;&amp;nbsp;3&amp;nbsp;&lt;/b&gt;&lt;/font&gt;&lt;/span&gt;" style="edgeLabel;html=1;align=center;verticalAlign=middle;resizable=0;points=[];" parent="83" vertex="1" connectable="0">
                    <mxGeometry x="0.0689" y="4" relative="1" as="geometry">
                        <mxPoint x="-7" y="3" as="offset"/>
                    </mxGeometry>
                </mxCell>
                <mxCell id="84" value="" style="endArrow=classic;html=1;entryX=0.5;entryY=0;entryDx=0;entryDy=0;entryPerimeter=0;exitX=0.5;exitY=1;exitDx=0;exitDy=0;exitPerimeter=0;dashed=1;dashPattern=1 1;" parent="1" source="80" target="79" edge="1">
                    <mxGeometry width="50" height="50" relative="1" as="geometry">
                        <mxPoint x="360.72499999999997" y="340" as="sourcePoint"/>
                        <mxPoint x="297.84999999999997" y="419" as="targetPoint"/>
                    </mxGeometry>
                </mxCell>
                <mxCell id="80" value="&lt;span style=&quot;background-color: rgb(255 , 255 , 255)&quot;&gt;CodePipeline&lt;/span&gt;" style="outlineConnect=0;dashed=0;verticalLabelPosition=bottom;verticalAlign=top;align=center;html=1;shape=mxgraph.aws3.codepipeline;fillColor=#759C3E;gradientColor=none;" parent="1" vertex="1">
                    <mxGeometry x="321.56" y="260" width="58.33" height="70" as="geometry"/>
                </mxCell>
                <mxCell id="87" value="&lt;span style=&quot;background-color: rgb(51 , 153 , 255)&quot;&gt;&lt;font color=&quot;#ffffff&quot; face=&quot;Verdana&quot;&gt;&lt;b&gt;&amp;nbsp;4&amp;nbsp;&lt;/b&gt;&lt;/font&gt;&lt;/span&gt;" style="edgeLabel;html=1;align=center;verticalAlign=middle;resizable=0;points=[];" parent="1" vertex="1" connectable="0">
                    <mxGeometry x="353.72999999999996" y="339" as="geometry">
                        <mxPoint x="-3" y="34" as="offset"/>
                    </mxGeometry>
                </mxCell>
                <mxCell id="91" value="&lt;b&gt;&lt;font color=&quot;#007fff&quot;&gt;buildspec.ymlを実行&lt;/font&gt;&lt;br&gt;&lt;/b&gt;テストの実行&lt;br&gt;デプロイの実行など" style="text;html=1;strokeColor=none;fillColor=none;align=left;verticalAlign=middle;whiteSpace=wrap;rounded=0;" parent="1" vertex="1">
                    <mxGeometry x="328.56" y="525" width="201.44" height="20" as="geometry"/>
                </mxCell>
                <mxCell id="93" value="&lt;span style=&quot;background-color: rgb(51 , 153 , 255)&quot;&gt;&lt;font color=&quot;#ffffff&quot; face=&quot;Verdana&quot;&gt;&lt;b&gt;&amp;nbsp;5&amp;nbsp;&lt;/b&gt;&lt;/font&gt;&lt;/span&gt;" style="edgeLabel;html=1;align=center;verticalAlign=middle;resizable=0;points=[];" parent="1" vertex="1" connectable="0">
                    <mxGeometry x="319.48999999999995" y="486" as="geometry">
                        <mxPoint x="-3" y="34" as="offset"/>
                    </mxGeometry>
                </mxCell>
                <mxCell id="94" value="&lt;div style=&quot;text-align: left&quot;&gt;&lt;span&gt;&lt;b&gt;開発環境&lt;/b&gt;&lt;/span&gt;&lt;/div&gt;&lt;div style=&quot;text-align: left&quot;&gt;&lt;span&gt;仮アカウントID:&amp;nbsp;000000000000&lt;/span&gt;&lt;/div&gt;" style="text;html=1;strokeColor=none;fillColor=none;align=center;verticalAlign=middle;whiteSpace=wrap;rounded=0;" parent="1" vertex="1">
                    <mxGeometry x="269" y="52" width="187" height="20" as="geometry"/>
                </mxCell>
                <mxCell id="96" value="&lt;div style=&quot;text-align: left&quot;&gt;&lt;span&gt;&lt;b&gt;本番環境&lt;/b&gt;&lt;/span&gt;&lt;/div&gt;&lt;div style=&quot;text-align: left&quot;&gt;&lt;span&gt;仮アカウントID:&amp;nbsp;111111111111&lt;/span&gt;&lt;/div&gt;" style="text;html=1;strokeColor=none;fillColor=none;align=center;verticalAlign=middle;whiteSpace=wrap;rounded=0;" parent="1" vertex="1">
                    <mxGeometry x="723" y="52" width="170" height="20" as="geometry"/>
                </mxCell>
                <mxCell id="100" value="" style="endArrow=classic;html=1;entryX=0.5;entryY=1;entryDx=0;entryDy=0;entryPerimeter=0;exitX=0.5;exitY=0;exitDx=0;exitDy=0;exitPerimeter=0;dashed=1;dashPattern=1 1;" parent="1" source="78" target="99" edge="1">
                    <mxGeometry width="50" height="50" relative="1" as="geometry">
                        <mxPoint x="389.8899999999999" y="305" as="sourcePoint"/>
                        <mxPoint x="489.05999999999995" y="305" as="targetPoint"/>
                    </mxGeometry>
                </mxCell>
                <mxCell id="101" value="&lt;span style=&quot;background-color: rgb(51 , 153 , 255)&quot;&gt;&lt;font color=&quot;#ffffff&quot; face=&quot;Verdana&quot;&gt;&lt;b&gt;&amp;nbsp;1&amp;nbsp;&lt;/b&gt;&lt;/font&gt;&lt;/span&gt;" style="edgeLabel;html=1;align=center;verticalAlign=middle;resizable=0;points=[];" parent="100" vertex="1" connectable="0">
                    <mxGeometry x="0.0689" y="4" relative="1" as="geometry">
                        <mxPoint x="3" y="8" as="offset"/>
                    </mxGeometry>
                </mxCell>
                <mxCell id="99" value="&lt;span style=&quot;background-color: rgb(255 , 255 , 255)&quot;&gt;CloudWatch Events&lt;/span&gt;" style="outlineConnect=0;dashed=0;verticalLabelPosition=bottom;verticalAlign=top;align=center;html=1;shape=mxgraph.aws3.cloudwatch;fillColor=#759C3E;gradientColor=none;" parent="1" vertex="1">
                    <mxGeometry x="476.8" y="100" width="62.1" height="70" as="geometry"/>
                </mxCell>
                <mxCell id="103" value="" style="endArrow=classic;html=1;entryX=0.5;entryY=0;entryDx=0;entryDy=0;entryPerimeter=0;exitX=0.1;exitY=0.5;exitDx=0;exitDy=0;exitPerimeter=0;dashed=1;dashPattern=1 1;" parent="1" source="99" target="80" edge="1">
                    <mxGeometry width="50" height="50" relative="1" as="geometry">
                        <mxPoint x="517.8499999999999" y="270" as="sourcePoint"/>
                        <mxPoint x="517.8499999999999" y="180" as="targetPoint"/>
                    </mxGeometry>
                </mxCell>
                <mxCell id="104" value="&lt;span style=&quot;background-color: rgb(51 , 153 , 255)&quot;&gt;&lt;font color=&quot;#ffffff&quot; face=&quot;Verdana&quot;&gt;&lt;b&gt;&amp;nbsp;2&amp;nbsp;&lt;/b&gt;&lt;/font&gt;&lt;/span&gt;" style="edgeLabel;html=1;align=center;verticalAlign=middle;resizable=0;points=[];" parent="103" vertex="1" connectable="0">
                    <mxGeometry x="0.0689" y="4" relative="1" as="geometry">
                        <mxPoint x="2" y="-9" as="offset"/>
                    </mxGeometry>
                </mxCell>
                <mxCell id="78" value="&lt;span style=&quot;background-color: rgb(255 , 255 , 255)&quot;&gt;CodeCommit&lt;/span&gt;" style="outlineConnect=0;dashed=0;verticalLabelPosition=bottom;verticalAlign=top;align=center;html=1;shape=mxgraph.aws3.codecommit;fillColor=#759C3E;gradientColor=none;" parent="1" vertex="1">
                    <mxGeometry x="479.06" y="260" width="57.58" height="70" as="geometry"/>
                </mxCell>
                <mxCell id="105" value="&lt;font color=&quot;#007fff&quot;&gt;&lt;b&gt;イベント通知&lt;/b&gt;&lt;/font&gt;" style="text;html=1;strokeColor=none;fillColor=none;align=left;verticalAlign=middle;whiteSpace=wrap;rounded=0;fontColor=#FF8000;" parent="1" vertex="1">
                    <mxGeometry x="515.8499999999999" y="211" width="190" height="20" as="geometry"/>
                </mxCell>
                <mxCell id="106" value="&lt;b&gt;&lt;font color=&quot;#007fff&quot;&gt;developブランチ更新後&lt;br&gt;パイプラインを開始&lt;/font&gt;&lt;/b&gt;" style="text;html=1;strokeColor=none;fillColor=none;align=left;verticalAlign=middle;whiteSpace=wrap;rounded=0;fontColor=#FF8000;" parent="1" vertex="1">
                    <mxGeometry x="310" y="161" width="190" height="20" as="geometry"/>
                </mxCell>
                <mxCell id="107" value="&lt;span style=&quot;background-color: rgb(255 , 255 , 255)&quot;&gt;CloudWatch Events&lt;/span&gt;" style="outlineConnect=0;dashed=0;verticalLabelPosition=bottom;verticalAlign=top;align=center;html=1;shape=mxgraph.aws3.cloudwatch;fillColor=#759C3E;gradientColor=none;" parent="1" vertex="1">
                    <mxGeometry x="768" y="100" width="62.1" height="70" as="geometry"/>
                </mxCell>
                <mxCell id="108" value="" style="endArrow=classic;html=1;exitX=0.75;exitY=0.5;exitDx=0;exitDy=0;exitPerimeter=0;entryX=0.1;entryY=0.5;entryDx=0;entryDy=0;entryPerimeter=0;dashed=1;dashPattern=1 1;" parent="1" source="99" target="107" edge="1">
                    <mxGeometry width="50" height="50" relative="1" as="geometry">
                        <mxPoint x="517.7028" y="424.5" as="sourcePoint"/>
                        <mxPoint x="690" y="140" as="targetPoint"/>
                    </mxGeometry>
                </mxCell>
                <mxCell id="109" value="" style="endArrow=classic;html=1;exitX=0.75;exitY=0.5;exitDx=0;exitDy=0;exitPerimeter=0;entryX=0.5;entryY=0;entryDx=0;entryDy=0;entryPerimeter=0;dashed=1;dashPattern=1 1;" parent="1" source="107" target="81" edge="1">
                    <mxGeometry width="50" height="50" relative="1" as="geometry">
                        <mxPoint x="621.375" y="145" as="sourcePoint"/>
                        <mxPoint x="784.21" y="145" as="targetPoint"/>
                    </mxGeometry>
                </mxCell>
                <mxCell id="111" value="" style="endArrow=classic;html=1;exitX=0.5;exitY=1;exitDx=0;exitDy=0;exitPerimeter=0;dashed=1;dashPattern=1 1;" parent="1" source="81" target="82" edge="1">
                    <mxGeometry width="50" height="50" relative="1" as="geometry">
                        <mxPoint x="448.7249999999999" y="340" as="sourcePoint"/>
                        <mxPoint x="448.69000000000005" y="419" as="targetPoint"/>
                    </mxGeometry>
                </mxCell>
                <mxCell id="112" value="&lt;font color=&quot;#ffffff&quot; face=&quot;Verdana&quot;&gt;&lt;b style=&quot;background-color: rgb(255 , 128 , 0)&quot;&gt;&amp;nbsp;1&amp;nbsp;&lt;/b&gt;&lt;/font&gt;" style="edgeLabel;html=1;align=center;verticalAlign=middle;resizable=0;points=[];" parent="1" vertex="1" connectable="0">
                    <mxGeometry x="515.8499999999999" y="233" as="geometry">
                        <mxPoint x="95" y="-99" as="offset"/>
                    </mxGeometry>
                </mxCell>
                <mxCell id="113" value="&lt;b&gt;イベント転送&lt;/b&gt;" style="text;html=1;strokeColor=none;fillColor=none;align=left;verticalAlign=middle;whiteSpace=wrap;rounded=0;fontColor=#FF8000;" parent="1" vertex="1">
                    <mxGeometry x="602.62" y="146" width="190" height="20" as="geometry"/>
                </mxCell>
                <mxCell id="114" value="&lt;b&gt;masterブランチ更新後&lt;br&gt;パイプラインを開始&lt;/b&gt;" style="text;html=1;strokeColor=none;fillColor=none;align=left;verticalAlign=middle;whiteSpace=wrap;rounded=0;fontColor=#FF8000;" parent="1" vertex="1">
                    <mxGeometry x="902" y="173" width="138" height="20" as="geometry"/>
                </mxCell>
                <mxCell id="115" value="&lt;font color=&quot;#ffffff&quot; face=&quot;Verdana&quot;&gt;&lt;b style=&quot;background-color: rgb(255 , 128 , 0)&quot;&gt;&amp;nbsp;2&amp;nbsp;&lt;/b&gt;&lt;/font&gt;" style="edgeLabel;html=1;align=center;verticalAlign=middle;resizable=0;points=[];" parent="1" vertex="1" connectable="0">
                    <mxGeometry x="793.8499999999999" y="294" as="geometry">
                        <mxPoint x="95" y="-99" as="offset"/>
                    </mxGeometry>
                </mxCell>
                <mxCell id="117" value="&lt;b&gt;AssumeRole&lt;/b&gt;" style="text;html=1;strokeColor=none;fillColor=none;align=left;verticalAlign=middle;whiteSpace=wrap;rounded=0;fontColor=#FF8000;" parent="1" vertex="1">
                    <mxGeometry x="776" y="307" width="94" height="20" as="geometry"/>
                </mxCell>
                <mxCell id="119" value="&lt;font color=&quot;#ffffff&quot; face=&quot;Verdana&quot;&gt;&lt;b style=&quot;background-color: rgb(255 , 128 , 0)&quot;&gt;&amp;nbsp;4&amp;nbsp;&lt;/b&gt;&lt;/font&gt;" style="edgeLabel;html=1;align=center;verticalAlign=middle;resizable=0;points=[];" parent="1" vertex="1" connectable="0">
                    <mxGeometry x="870.9999999999999" y="468" as="geometry">
                        <mxPoint x="95" y="-99" as="offset"/>
                    </mxGeometry>
                </mxCell>
                <mxCell id="120" value="&lt;b&gt;&lt;font color=&quot;#ff8000&quot;&gt;buildspec.ymlを実行&lt;/font&gt;&lt;br&gt;&lt;/b&gt;テストの実行&lt;br&gt;デプロイの実行など" style="text;html=1;strokeColor=none;fillColor=none;align=left;verticalAlign=middle;whiteSpace=wrap;rounded=0;" parent="1" vertex="1">
                    <mxGeometry x="920" y="521" width="120" height="20" as="geometry"/>
                </mxCell>
                <mxCell id="121" value="&lt;font color=&quot;#ffffff&quot; face=&quot;Verdana&quot;&gt;&lt;b style=&quot;background-color: rgb(255 , 128 , 0)&quot;&gt;&amp;nbsp;5&amp;nbsp;&lt;/b&gt;&lt;/font&gt;" style="edgeLabel;html=1;align=center;verticalAlign=middle;resizable=0;points=[];" parent="1" vertex="1" connectable="0">
                    <mxGeometry x="910" y="482" as="geometry">
                        <mxPoint x="-3" y="34" as="offset"/>
                    </mxGeometry>
                </mxCell>
                <mxCell id="127" value="" style="rounded=1;whiteSpace=wrap;html=1;fontColor=#FF8000;arcSize=3;" parent="1" vertex="1">
                    <mxGeometry x="748" y="348" width="152" height="120" as="geometry"/>
                </mxCell>
                <mxCell id="128" value="&lt;font color=&quot;#000000&quot; style=&quot;font-size: 10px&quot;&gt;&lt;b&gt;アーティファクトバケット&lt;/b&gt;&lt;/font&gt;" style="text;html=1;strokeColor=none;fillColor=none;align=center;verticalAlign=middle;whiteSpace=wrap;rounded=0;fontColor=#FF8000;" parent="1" vertex="1">
                    <mxGeometry x="748" y="348" width="127" height="19.54" as="geometry"/>
                </mxCell>
                <mxCell id="122" value="&lt;font color=&quot;#000000&quot;&gt;S3&lt;/font&gt;" style="outlineConnect=0;dashed=0;verticalLabelPosition=bottom;verticalAlign=top;align=center;html=1;shape=mxgraph.aws3.s3;fillColor=#E05243;gradientColor=none;fontColor=#FF8000;" parent="1" vertex="1">
                    <mxGeometry x="765" y="373" width="55.94" height="68" as="geometry"/>
                </mxCell>
                <mxCell id="123" value="&lt;font color=&quot;#000000&quot;&gt;KMS&lt;/font&gt;" style="outlineConnect=0;dashed=0;verticalLabelPosition=bottom;verticalAlign=top;align=center;html=1;shape=mxgraph.aws3.kms;fillColor=#759C3E;gradientColor=none;fontColor=#FF8000;" parent="1" vertex="1">
                    <mxGeometry x="840" y="380.5" width="43.6" height="53" as="geometry"/>
                </mxCell>
                <mxCell id="129" value="" style="endArrow=classic;html=1;exitX=0;exitY=0.5;exitDx=0;exitDy=0;exitPerimeter=0;dashed=1;dashPattern=1 1;" parent="1" source="81" target="78" edge="1">
                    <mxGeometry width="50" height="50" relative="1" as="geometry">
                        <mxPoint x="938" y="295" as="sourcePoint"/>
                        <mxPoint x="756" y="294" as="targetPoint"/>
                    </mxGeometry>
                </mxCell>
                <mxCell id="77" value="IAM Role" style="outlineConnect=0;dashed=0;verticalLabelPosition=bottom;verticalAlign=top;align=center;html=1;shape=mxgraph.aws3.role;fillColor=#759C3E;gradientColor=none;" parent="1" vertex="1">
                    <mxGeometry x="601.62" y="266.5" width="65.38" height="55" as="geometry"/>
                </mxCell>
                <mxCell id="116" value="&lt;font color=&quot;#ffffff&quot; face=&quot;Verdana&quot;&gt;&lt;b style=&quot;background-color: rgb(255 , 128 , 0)&quot;&gt;&amp;nbsp;3&amp;nbsp;&lt;/b&gt;&lt;/font&gt;" style="edgeLabel;html=1;align=center;verticalAlign=middle;resizable=0;points=[];" parent="1" vertex="1" connectable="0">
                    <mxGeometry x="689.9999999999999" y="393" as="geometry">
                        <mxPoint x="95" y="-99" as="offset"/>
                    </mxGeometry>
                </mxCell>
                <mxCell id="130" value="" style="endArrow=classic;html=1;dashed=1;fontColor=#FF8000;exitX=0.79;exitY=0.8;exitDx=0;exitDy=0;exitPerimeter=0;entryX=0;entryY=0.5;entryDx=0;entryDy=0;strokeColor=#FF00FF;" parent="1" source="77" target="127" edge="1">
                    <mxGeometry width="50" height="50" relative="1" as="geometry">
                        <mxPoint x="580" y="490" as="sourcePoint"/>
                        <mxPoint x="630" y="440" as="targetPoint"/>
                    </mxGeometry>
                </mxCell>
                <mxCell id="133" value="" style="endArrow=classic;html=1;dashed=1;fontColor=#FF8000;entryX=1;entryY=0;entryDx=0;entryDy=0;strokeColor=#FF00FF;" parent="1" source="81" target="127" edge="1">
                    <mxGeometry width="50" height="50" relative="1" as="geometry">
                        <mxPoint x="663.2701999999999" y="320.5" as="sourcePoint"/>
                        <mxPoint x="758" y="418" as="targetPoint"/>
                    </mxGeometry>
                </mxCell>
                <mxCell id="134" value="" style="endArrow=classic;html=1;dashed=1;fontColor=#FF8000;entryX=1.015;entryY=0.895;entryDx=0;entryDy=0;strokeColor=#FF00FF;exitX=0;exitY=0.79;exitDx=0;exitDy=0;exitPerimeter=0;entryPerimeter=0;" parent="1" source="82" target="127" edge="1">
                    <mxGeometry width="50" height="50" relative="1" as="geometry">
                        <mxPoint x="948" y="328.01414427157" as="sourcePoint"/>
                        <mxPoint x="910" y="358" as="targetPoint"/>
                    </mxGeometry>
                </mxCell>
                <mxCell id="135" value="&lt;font style=&quot;font-size: 9px;&quot; color=&quot;#ff00ff&quot;&gt;&lt;b style=&quot;font-size: 9px;&quot;&gt;アクセス許可&lt;/b&gt;&lt;/font&gt;" style="text;html=1;strokeColor=none;fillColor=none;align=center;verticalAlign=middle;whiteSpace=wrap;rounded=0;fontColor=#FF8000;fontSize=9;" parent="1" vertex="1">
                    <mxGeometry x="633" y="351" width="59" height="20" as="geometry"/>
                </mxCell>
                <mxCell id="136" value="&lt;font color=&quot;#ff00ff&quot; size=&quot;1&quot;&gt;&lt;b style=&quot;font-size: 8px&quot;&gt;アクセス許可&lt;/b&gt;&lt;/font&gt;" style="text;html=1;strokeColor=none;fillColor=none;align=center;verticalAlign=middle;whiteSpace=wrap;rounded=0;fontColor=#FF8000;" parent="1" vertex="1">
                    <mxGeometry x="855.5" y="318.5" width="59" height="20" as="geometry"/>
                </mxCell>
                <mxCell id="137" value="&lt;font color=&quot;#ff00ff&quot; size=&quot;1&quot;&gt;&lt;b style=&quot;font-size: 8px&quot;&gt;アクセス許可&lt;/b&gt;&lt;/font&gt;" style="text;html=1;strokeColor=none;fillColor=none;align=center;verticalAlign=middle;whiteSpace=wrap;rounded=0;fontColor=#FF8000;" parent="1" vertex="1">
                    <mxGeometry x="880.5" y="468" width="59" height="20" as="geometry"/>
                </mxCell>
                <mxCell id="139" value="&lt;font color=&quot;#ffffff&quot;&gt;.&lt;/font&gt;" style="text;html=1;strokeColor=none;fillColor=none;align=center;verticalAlign=middle;whiteSpace=wrap;rounded=0;fontSize=9;fontColor=#FF8000;" parent="1" vertex="1">
                    <mxGeometry x="251" y="19" width="40" height="20" as="geometry"/>
                </mxCell>
                <mxCell id="140" value="&lt;font color=&quot;#ffffff&quot;&gt;.&lt;/font&gt;" style="text;html=1;strokeColor=none;fillColor=none;align=center;verticalAlign=middle;whiteSpace=wrap;rounded=0;fontSize=9;fontColor=#FF8000;" parent="1" vertex="1">
                    <mxGeometry x="1026" y="599" width="40" height="20" as="geometry"/>
                </mxCell>
            </root>
        </mxGraphModel>
    </diagram>
</mxfile>